<?xml version="1.0" encoding="UTF-8"?>
<svg xmlns="http://www.w3.org/2000/svg" xmlns:xlink="http://www.w3.org/1999/xlink" width="504pt" height="360pt" viewBox="0 0 504 360">
<defs>
<g>
<g id="glyph-0-0">
<path d="M 0.449219 -3.816406 C 0.449219 -4.730469 0.542969 -5.46875 0.730469 -6.027344 C 0.917969 -6.585938 1.199219 -7.015625 1.570312 -7.316406 C 1.941406 -7.621094 2.410156 -7.769531 2.972656 -7.769531 C 3.386719 -7.769531 3.75 -7.6875 4.066406 -7.519531 C 4.378906 -7.351562 4.636719 -7.113281 4.839844 -6.796875 C 5.046875 -6.480469 5.207031 -6.097656 5.320312 -5.644531 C 5.4375 -5.195312 5.496094 -4.585938 5.496094 -3.816406 C 5.496094 -2.910156 5.402344 -2.175781 5.214844 -1.617188 C 5.03125 -1.058594 4.75 -0.628906 4.378906 -0.324219 C 4.007812 -0.0195312 3.539062 0.132812 2.972656 0.132812 C 2.226562 0.132812 1.640625 -0.136719 1.214844 -0.671875 C 0.703125 -1.316406 0.449219 -2.363281 0.449219 -3.816406 M 1.425781 -3.816406 C 1.425781 -2.546875 1.574219 -1.699219 1.871094 -1.28125 C 2.167969 -0.859375 2.535156 -0.648438 2.972656 -0.648438 C 3.410156 -0.648438 3.777344 -0.859375 4.074219 -1.28125 C 4.371094 -1.707031 4.519531 -2.550781 4.519531 -3.816406 C 4.519531 -5.089844 4.371094 -5.9375 4.074219 -6.355469 C 3.777344 -6.773438 3.40625 -6.984375 2.960938 -6.984375 C 2.523438 -6.984375 2.175781 -6.800781 1.917969 -6.429688 C 1.589844 -5.957031 1.425781 -5.085938 1.425781 -3.816406 Z M 1.425781 -3.816406 "/>
</g>
<g id="glyph-0-1">
<path d="M 0.980469 0 L 0.980469 -1.082031 L 2.0625 -1.082031 L 2.0625 0 Z M 0.980469 0 "/>
</g>
<g id="glyph-0-2">
<path d="M 5.378906 -5.84375 L 4.433594 -5.769531 C 4.351562 -6.144531 4.230469 -6.414062 4.074219 -6.582031 C 3.820312 -6.855469 3.5 -6.988281 3.125 -6.988281 C 2.824219 -6.988281 2.558594 -6.90625 2.328125 -6.738281 C 2.027344 -6.519531 1.792969 -6.199219 1.621094 -5.78125 C 1.449219 -5.363281 1.359375 -4.765625 1.351562 -3.992188 C 1.582031 -4.339844 1.859375 -4.597656 2.191406 -4.765625 C 2.523438 -4.9375 2.867188 -5.019531 3.230469 -5.019531 C 3.863281 -5.019531 4.402344 -4.789062 4.847656 -4.320312 C 5.292969 -3.855469 5.515625 -3.253906 5.515625 -2.511719 C 5.515625 -2.027344 5.414062 -1.574219 5.203125 -1.160156 C 4.992188 -0.742188 4.707031 -0.421875 4.339844 -0.199219 C 3.972656 0.0195312 3.558594 0.132812 3.09375 0.132812 C 2.300781 0.132812 1.65625 -0.160156 1.15625 -0.742188 C 0.65625 -1.324219 0.40625 -2.285156 0.40625 -3.621094 C 0.40625 -5.117188 0.683594 -6.203125 1.234375 -6.882812 C 1.71875 -7.476562 2.367188 -7.769531 3.183594 -7.769531 C 3.792969 -7.769531 4.292969 -7.601562 4.679688 -7.257812 C 5.070312 -6.917969 5.300781 -6.445312 5.378906 -5.84375 M 1.5 -2.507812 C 1.5 -2.179688 1.570312 -1.867188 1.707031 -1.566406 C 1.847656 -1.269531 2.042969 -1.039062 2.292969 -0.882812 C 2.542969 -0.726562 2.804688 -0.648438 3.078125 -0.648438 C 3.480469 -0.648438 3.824219 -0.8125 4.113281 -1.136719 C 4.402344 -1.457031 4.546875 -1.898438 4.546875 -2.453125 C 4.546875 -2.988281 4.402344 -3.410156 4.117188 -3.71875 C 3.832031 -4.027344 3.472656 -4.179688 3.039062 -4.179688 C 2.613281 -4.179688 2.246094 -4.027344 1.949219 -3.71875 C 1.648438 -3.410156 1.5 -3.007812 1.5 -2.507812 Z M 1.5 -2.507812 "/>
</g>
<g id="glyph-0-3">
<path d="M 5.441406 -0.914062 L 5.441406 0 L 0.328125 0 C 0.320312 -0.230469 0.355469 -0.449219 0.4375 -0.660156 C 0.570312 -1.007812 0.777344 -1.351562 1.0625 -1.6875 C 1.351562 -2.027344 1.765625 -2.417969 2.308594 -2.863281 C 3.148438 -3.550781 3.714844 -4.097656 4.011719 -4.5 C 4.308594 -4.902344 4.457031 -5.285156 4.457031 -5.644531 C 4.457031 -6.019531 4.320312 -6.335938 4.050781 -6.597656 C 3.78125 -6.855469 3.429688 -6.984375 3 -6.984375 C 2.542969 -6.984375 2.175781 -6.847656 1.902344 -6.574219 C 1.625 -6.296875 1.488281 -5.917969 1.484375 -5.433594 L 0.507812 -5.53125 C 0.574219 -6.261719 0.824219 -6.816406 1.261719 -7.199219 C 1.699219 -7.582031 2.285156 -7.769531 3.019531 -7.769531 C 3.761719 -7.769531 4.351562 -7.566406 4.78125 -7.152344 C 5.214844 -6.742188 5.433594 -6.230469 5.433594 -5.621094 C 5.433594 -5.3125 5.367188 -5.007812 5.242188 -4.710938 C 5.117188 -4.410156 4.90625 -4.09375 4.613281 -3.765625 C 4.316406 -3.433594 3.828125 -2.980469 3.144531 -2.402344 C 2.578125 -1.921875 2.210938 -1.597656 2.046875 -1.429688 C 1.886719 -1.257812 1.753906 -1.085938 1.648438 -0.914062 Z M 5.441406 -0.914062 "/>
</g>
<g id="glyph-0-4">
<path d="M 0.589844 -1.789062 L 1.503906 -1.875 C 1.582031 -1.445312 1.730469 -1.132812 1.949219 -0.941406 C 2.167969 -0.746094 2.445312 -0.648438 2.789062 -0.648438 C 3.078125 -0.648438 3.335938 -0.714844 3.554688 -0.851562 C 3.777344 -0.984375 3.957031 -1.164062 4.097656 -1.386719 C 4.238281 -1.609375 4.355469 -1.910156 4.449219 -2.292969 C 4.546875 -2.671875 4.59375 -3.058594 4.59375 -3.453125 C 4.59375 -3.496094 4.589844 -3.558594 4.585938 -3.644531 C 4.398438 -3.339844 4.136719 -3.09375 3.808594 -2.90625 C 3.480469 -2.71875 3.125 -2.625 2.738281 -2.625 C 2.097656 -2.625 1.558594 -2.855469 1.113281 -3.320312 C 0.671875 -3.785156 0.449219 -4.398438 0.449219 -5.15625 C 0.449219 -5.941406 0.679688 -6.574219 1.144531 -7.054688 C 1.605469 -7.53125 2.1875 -7.769531 2.882812 -7.769531 C 3.386719 -7.769531 3.847656 -7.636719 4.261719 -7.363281 C 4.679688 -7.09375 4.996094 -6.707031 5.214844 -6.207031 C 5.429688 -5.703125 5.539062 -4.976562 5.539062 -4.027344 C 5.539062 -3.039062 5.429688 -2.25 5.214844 -1.664062 C 5 -1.078125 4.683594 -0.632812 4.257812 -0.328125 C 3.832031 -0.0195312 3.335938 0.132812 2.765625 0.132812 C 2.160156 0.132812 1.667969 -0.0351562 1.28125 -0.371094 C 0.898438 -0.707031 0.667969 -1.179688 0.589844 -1.789062 M 4.480469 -5.207031 C 4.480469 -5.75 4.335938 -6.183594 4.046875 -6.503906 C 3.757812 -6.824219 3.40625 -6.984375 3 -6.984375 C 2.578125 -6.984375 2.207031 -6.8125 1.894531 -6.46875 C 1.582031 -6.121094 1.425781 -5.675781 1.425781 -5.125 C 1.425781 -4.632812 1.574219 -4.234375 1.871094 -3.925781 C 2.167969 -3.617188 2.535156 -3.464844 2.972656 -3.464844 C 3.414062 -3.464844 3.773438 -3.617188 4.058594 -3.925781 C 4.339844 -4.234375 4.480469 -4.660156 4.480469 -5.207031 Z M 4.480469 -5.207031 "/>
</g>
<g id="glyph-0-5">
<path d="M 0.449219 -2.027344 L 1.445312 -2.113281 C 1.519531 -1.625 1.691406 -1.261719 1.960938 -1.015625 C 2.230469 -0.773438 2.554688 -0.648438 2.933594 -0.648438 C 3.394531 -0.648438 3.78125 -0.820312 4.097656 -1.167969 C 4.414062 -1.511719 4.570312 -1.96875 4.570312 -2.539062 C 4.570312 -3.082031 4.417969 -3.507812 4.113281 -3.820312 C 3.8125 -4.136719 3.414062 -4.292969 2.917969 -4.292969 C 2.613281 -4.292969 2.335938 -4.222656 2.089844 -4.082031 C 1.84375 -3.945312 1.652344 -3.765625 1.511719 -3.542969 L 0.617188 -3.660156 L 1.367188 -7.632812 L 5.214844 -7.632812 L 5.214844 -6.726562 L 2.128906 -6.726562 L 1.710938 -4.644531 C 2.175781 -4.96875 2.664062 -5.132812 3.171875 -5.132812 C 3.847656 -5.132812 4.417969 -4.898438 4.882812 -4.429688 C 5.347656 -3.960938 5.582031 -3.359375 5.582031 -2.625 C 5.582031 -1.921875 5.375 -1.316406 4.96875 -0.808594 C 4.472656 -0.179688 3.792969 0.132812 2.933594 0.132812 C 2.230469 0.132812 1.65625 -0.0664062 1.210938 -0.460938 C 0.765625 -0.851562 0.511719 -1.375 0.449219 -2.027344 Z M 0.449219 -2.027344 "/>
</g>
<g id="glyph-0-6">
<path d="M 0.453125 -2.042969 L 1.40625 -2.167969 C 1.511719 -1.632812 1.699219 -1.242188 1.960938 -1.003906 C 2.222656 -0.769531 2.542969 -0.648438 2.917969 -0.648438 C 3.367188 -0.648438 3.742188 -0.804688 4.050781 -1.113281 C 4.359375 -1.421875 4.515625 -1.808594 4.515625 -2.265625 C 4.515625 -2.703125 4.371094 -3.0625 4.085938 -3.34375 C 3.800781 -3.628906 3.4375 -3.769531 3 -3.769531 C 2.820312 -3.769531 2.59375 -3.734375 2.328125 -3.664062 L 2.433594 -4.496094 C 2.496094 -4.492188 2.546875 -4.488281 2.585938 -4.488281 C 2.992188 -4.488281 3.355469 -4.59375 3.679688 -4.804688 C 4.003906 -5.015625 4.164062 -5.339844 4.164062 -5.78125 C 4.164062 -6.128906 4.046875 -6.417969 3.8125 -6.648438 C 3.574219 -6.875 3.269531 -6.988281 2.898438 -6.988281 C 2.527344 -6.988281 2.222656 -6.875 1.972656 -6.640625 C 1.726562 -6.410156 1.570312 -6.0625 1.5 -5.597656 L 0.550781 -5.765625 C 0.664062 -6.402344 0.929688 -6.894531 1.339844 -7.246094 C 1.753906 -7.597656 2.265625 -7.769531 2.878906 -7.769531 C 3.300781 -7.769531 3.6875 -7.679688 4.042969 -7.5 C 4.398438 -7.316406 4.671875 -7.070312 4.859375 -6.757812 C 5.046875 -6.445312 5.140625 -6.113281 5.140625 -5.757812 C 5.140625 -5.425781 5.050781 -5.121094 4.871094 -4.847656 C 4.691406 -4.570312 4.425781 -4.355469 4.074219 -4.191406 C 4.53125 -4.085938 4.886719 -3.867188 5.140625 -3.535156 C 5.394531 -3.203125 5.523438 -2.785156 5.523438 -2.285156 C 5.523438 -1.609375 5.277344 -1.039062 4.78125 -0.566406 C 4.289062 -0.0976562 3.667969 0.136719 2.914062 0.136719 C 2.234375 0.136719 1.671875 -0.0664062 1.222656 -0.46875 C 0.773438 -0.875 0.515625 -1.398438 0.453125 -2.042969 Z M 0.453125 -2.042969 "/>
</g>
<g id="glyph-1-0">
<path d="M 0.398438 -3.390625 C 0.398438 -4.203125 0.480469 -4.855469 0.648438 -5.351562 C 0.816406 -5.847656 1.066406 -6.226562 1.394531 -6.496094 C 1.722656 -6.765625 2.140625 -6.898438 2.640625 -6.898438 C 3.007812 -6.898438 3.332031 -6.824219 3.609375 -6.675781 C 3.886719 -6.527344 4.117188 -6.316406 4.296875 -6.035156 C 4.480469 -5.753906 4.621094 -5.414062 4.726562 -5.011719 C 4.828125 -4.613281 4.878906 -4.070312 4.878906 -3.390625 C 4.878906 -2.582031 4.796875 -1.933594 4.632812 -1.4375 C 4.464844 -0.941406 4.21875 -0.558594 3.886719 -0.289062 C 3.558594 -0.0195312 3.140625 0.117188 2.640625 0.117188 C 1.976562 0.117188 1.457031 -0.121094 1.078125 -0.59375 C 0.625 -1.167969 0.398438 -2.097656 0.398438 -3.390625 M 1.265625 -3.390625 C 1.265625 -2.261719 1.398438 -1.511719 1.660156 -1.136719 C 1.925781 -0.761719 2.25 -0.578125 2.640625 -0.578125 C 3.027344 -0.578125 3.351562 -0.765625 3.617188 -1.140625 C 3.878906 -1.515625 4.011719 -2.265625 4.011719 -3.390625 C 4.011719 -4.519531 3.878906 -5.273438 3.617188 -5.644531 C 3.351562 -6.015625 3.023438 -6.203125 2.628906 -6.203125 C 2.242188 -6.203125 1.933594 -6.039062 1.703125 -5.710938 C 1.410156 -5.289062 1.265625 -4.515625 1.265625 -3.390625 Z M 1.265625 -3.390625 "/>
</g>
<g id="glyph-1-1">
<path d="M 0.871094 0 L 0.871094 -0.960938 L 1.832031 -0.960938 L 1.832031 0 Z M 0.871094 0 "/>
</g>
<g id="glyph-1-2">
<path d="M 0.398438 -1.800781 L 1.285156 -1.875 C 1.351562 -1.445312 1.503906 -1.121094 1.742188 -0.902344 C 1.980469 -0.683594 2.269531 -0.578125 2.605469 -0.578125 C 3.011719 -0.578125 3.355469 -0.730469 3.636719 -1.035156 C 3.917969 -1.34375 4.058594 -1.75 4.058594 -2.253906 C 4.058594 -2.734375 3.925781 -3.117188 3.652344 -3.394531 C 3.382812 -3.671875 3.03125 -3.8125 2.59375 -3.8125 C 2.320312 -3.8125 2.074219 -3.75 1.855469 -3.625 C 1.636719 -3.503906 1.464844 -3.34375 1.339844 -3.144531 L 0.546875 -3.25 L 1.214844 -6.777344 L 4.632812 -6.777344 L 4.632812 -5.972656 L 1.890625 -5.972656 L 1.519531 -4.125 C 1.929688 -4.414062 2.363281 -4.554688 2.816406 -4.554688 C 3.417969 -4.554688 3.921875 -4.347656 4.335938 -3.933594 C 4.75 -3.515625 4.953125 -2.984375 4.953125 -2.328125 C 4.953125 -1.707031 4.773438 -1.171875 4.410156 -0.71875 C 3.96875 -0.160156 3.367188 0.117188 2.605469 0.117188 C 1.980469 0.117188 1.472656 -0.0585938 1.074219 -0.40625 C 0.679688 -0.757812 0.453125 -1.222656 0.398438 -1.800781 Z M 0.398438 -1.800781 "/>
</g>
<g id="glyph-1-3">
<path d="M 3.578125 0 L 2.734375 0 L 2.734375 -5.375 C 2.53125 -5.183594 2.261719 -4.988281 1.933594 -4.796875 C 1.605469 -4.601562 1.308594 -4.457031 1.046875 -4.359375 L 1.046875 -5.175781 C 1.515625 -5.398438 1.929688 -5.664062 2.28125 -5.980469 C 2.636719 -6.296875 2.886719 -6.601562 3.03125 -6.898438 L 3.578125 -6.898438 Z M 3.578125 0 "/>
</g>
<g id="glyph-1-4">
<path d="M 4.832031 -0.8125 L 4.832031 0 L 0.289062 0 C 0.285156 -0.203125 0.316406 -0.398438 0.390625 -0.585938 C 0.503906 -0.894531 0.691406 -1.199219 0.945312 -1.5 C 1.199219 -1.800781 1.566406 -2.148438 2.046875 -2.539062 C 2.796875 -3.152344 3.300781 -3.636719 3.5625 -3.996094 C 3.824219 -4.355469 3.957031 -4.691406 3.957031 -5.011719 C 3.957031 -5.34375 3.835938 -5.628906 3.597656 -5.855469 C 3.359375 -6.085938 3.046875 -6.203125 2.664062 -6.203125 C 2.257812 -6.203125 1.929688 -6.078125 1.6875 -5.835938 C 1.445312 -5.59375 1.320312 -5.253906 1.316406 -4.824219 L 0.449219 -4.914062 C 0.507812 -5.558594 0.734375 -6.050781 1.121094 -6.390625 C 1.507812 -6.730469 2.027344 -6.898438 2.679688 -6.898438 C 3.339844 -6.898438 3.863281 -6.71875 4.246094 -6.351562 C 4.632812 -5.984375 4.824219 -5.53125 4.824219 -4.992188 C 4.824219 -4.71875 4.765625 -4.445312 4.65625 -4.179688 C 4.542969 -3.914062 4.355469 -3.636719 4.09375 -3.34375 C 3.832031 -3.046875 3.398438 -2.644531 2.792969 -2.132812 C 2.289062 -1.707031 1.960938 -1.417969 1.820312 -1.269531 C 1.675781 -1.117188 1.554688 -0.964844 1.460938 -0.8125 Z M 4.832031 -0.8125 "/>
</g>
<g id="glyph-1-5">
<path d="M 0.402344 -1.8125 L 1.246094 -1.925781 C 1.34375 -1.449219 1.507812 -1.105469 1.742188 -0.894531 C 1.972656 -0.683594 2.257812 -0.578125 2.59375 -0.578125 C 2.988281 -0.578125 3.324219 -0.714844 3.597656 -0.988281 C 3.871094 -1.265625 4.007812 -1.605469 4.007812 -2.011719 C 4.007812 -2.398438 3.882812 -2.71875 3.628906 -2.96875 C 3.375 -3.222656 3.054688 -3.347656 2.664062 -3.347656 C 2.503906 -3.347656 2.304688 -3.316406 2.066406 -3.253906 L 2.160156 -3.992188 C 2.21875 -3.988281 2.261719 -3.984375 2.296875 -3.984375 C 2.65625 -3.984375 2.980469 -4.078125 3.265625 -4.265625 C 3.554688 -4.453125 3.699219 -4.742188 3.699219 -5.132812 C 3.699219 -5.441406 3.59375 -5.699219 3.382812 -5.902344 C 3.175781 -6.105469 2.90625 -6.207031 2.574219 -6.207031 C 2.246094 -6.207031 1.972656 -6.101562 1.753906 -5.898438 C 1.535156 -5.691406 1.394531 -5.382812 1.332031 -4.96875 L 0.488281 -5.117188 C 0.589844 -5.683594 0.824219 -6.121094 1.191406 -6.433594 C 1.554688 -6.746094 2.011719 -6.898438 2.554688 -6.898438 C 2.929688 -6.898438 3.273438 -6.820312 3.589844 -6.660156 C 3.90625 -6.496094 4.148438 -6.277344 4.316406 -6 C 4.480469 -5.722656 4.566406 -5.425781 4.566406 -5.113281 C 4.566406 -4.816406 4.484375 -4.546875 4.328125 -4.304688 C 4.167969 -4.058594 3.929688 -3.867188 3.617188 -3.722656 C 4.023438 -3.628906 4.339844 -3.433594 4.566406 -3.136719 C 4.789062 -2.84375 4.902344 -2.472656 4.902344 -2.03125 C 4.902344 -1.429688 4.683594 -0.921875 4.246094 -0.503906 C 3.808594 -0.0859375 3.257812 0.121094 2.585938 0.121094 C 1.984375 0.121094 1.484375 -0.0585938 1.085938 -0.417969 C 0.6875 -0.777344 0.460938 -1.242188 0.402344 -1.8125 Z M 0.402344 -1.8125 "/>
</g>
<g id="glyph-1-6">
<path d="M 3.101562 0 L 3.101562 -1.644531 L 0.121094 -1.644531 L 0.121094 -2.417969 L 3.257812 -6.871094 L 3.945312 -6.871094 L 3.945312 -2.417969 L 4.875 -2.417969 L 4.875 -1.644531 L 3.945312 -1.644531 L 3.945312 0 L 3.101562 0 M 3.101562 -2.417969 L 3.101562 -5.515625 L 0.953125 -2.417969 Z M 3.101562 -2.417969 "/>
</g>
<g id="glyph-1-7">
<path d="M 0.742188 0 L 0.742188 -6.871094 L 3.332031 -6.871094 C 3.789062 -6.871094 4.136719 -6.851562 4.378906 -6.804688 C 4.714844 -6.75 5 -6.644531 5.226562 -6.484375 C 5.453125 -6.328125 5.636719 -6.105469 5.777344 -5.820312 C 5.917969 -5.539062 5.984375 -5.226562 5.984375 -4.882812 C 5.984375 -4.300781 5.800781 -3.804688 5.429688 -3.402344 C 5.054688 -2.996094 4.382812 -2.792969 3.414062 -2.792969 L 1.648438 -2.792969 L 1.648438 0 L 0.742188 0 M 1.648438 -3.605469 L 3.425781 -3.605469 C 4.015625 -3.605469 4.429688 -3.714844 4.679688 -3.933594 C 4.925781 -4.152344 5.046875 -4.460938 5.046875 -4.855469 C 5.046875 -5.144531 4.976562 -5.390625 4.832031 -5.59375 C 4.683594 -5.800781 4.492188 -5.933594 4.257812 -6 C 4.101562 -6.039062 3.820312 -6.0625 3.40625 -6.0625 L 1.648438 -6.0625 Z M 1.648438 -3.605469 "/>
</g>
<g id="glyph-1-8">
<path d="M 0.320312 -2.488281 C 0.320312 -3.410156 0.574219 -4.09375 1.085938 -4.539062 C 1.515625 -4.90625 2.039062 -5.089844 2.652344 -5.089844 C 3.335938 -5.089844 3.898438 -4.867188 4.332031 -4.417969 C 4.765625 -3.96875 4.984375 -3.351562 4.984375 -2.558594 C 4.984375 -1.917969 4.886719 -1.414062 4.695312 -1.046875 C 4.503906 -0.679688 4.222656 -0.394531 3.855469 -0.191406 C 3.488281 0.0117188 3.085938 0.113281 2.652344 0.113281 C 1.957031 0.113281 1.394531 -0.109375 0.964844 -0.558594 C 0.535156 -1.003906 0.320312 -1.648438 0.320312 -2.488281 M 1.1875 -2.488281 C 1.1875 -1.851562 1.324219 -1.375 1.601562 -1.058594 C 1.882812 -0.738281 2.230469 -0.582031 2.652344 -0.582031 C 3.070312 -0.582031 3.421875 -0.742188 3.699219 -1.058594 C 3.976562 -1.378906 4.117188 -1.863281 4.117188 -2.515625 C 4.117188 -3.132812 3.976562 -3.597656 3.695312 -3.917969 C 3.417969 -4.234375 3.070312 -4.390625 2.652344 -4.390625 C 2.230469 -4.390625 1.882812 -4.234375 1.601562 -3.917969 C 1.324219 -3.601562 1.1875 -3.125 1.1875 -2.488281 Z M 1.1875 -2.488281 "/>
</g>
<g id="glyph-1-9">
<path d="M 0.613281 0 L 0.613281 -6.871094 L 1.457031 -6.871094 L 1.457031 0 Z M 0.613281 0 "/>
</g>
<g id="glyph-1-10">
<path d="M 4.039062 -1.601562 L 4.914062 -1.496094 C 4.773438 -0.984375 4.519531 -0.589844 4.148438 -0.308594 C 3.777344 -0.0273438 3.300781 0.113281 2.722656 0.113281 C 1.996094 0.113281 1.417969 -0.113281 0.992188 -0.558594 C 0.566406 -1.007812 0.351562 -1.636719 0.351562 -2.445312 C 0.351562 -3.285156 0.566406 -3.933594 1 -4.398438 C 1.429688 -4.859375 1.988281 -5.089844 2.675781 -5.089844 C 3.34375 -5.089844 3.886719 -4.863281 4.308594 -4.410156 C 4.730469 -3.957031 4.941406 -3.320312 4.941406 -2.5 C 4.941406 -2.449219 4.9375 -2.375 4.9375 -2.273438 L 1.222656 -2.273438 C 1.253906 -1.726562 1.410156 -1.308594 1.6875 -1.015625 C 1.964844 -0.726562 2.3125 -0.582031 2.726562 -0.582031 C 3.039062 -0.582031 3.300781 -0.664062 3.519531 -0.824219 C 3.738281 -0.988281 3.914062 -1.246094 4.039062 -1.601562 M 1.269531 -2.96875 L 4.050781 -2.96875 C 4.011719 -3.386719 3.90625 -3.699219 3.730469 -3.910156 C 3.460938 -4.234375 3.113281 -4.398438 2.6875 -4.398438 C 2.296875 -4.398438 1.972656 -4.265625 1.707031 -4.007812 C 1.445312 -3.75 1.296875 -3.402344 1.269531 -2.96875 Z M 1.269531 -2.96875 "/>
</g>
<g id="glyph-1-11">
<path d="M 3.863281 0 L 3.863281 -0.628906 C 3.546875 -0.132812 3.082031 0.113281 2.46875 0.113281 C 2.074219 0.113281 1.707031 0.00390625 1.375 -0.214844 C 1.042969 -0.433594 0.785156 -0.738281 0.601562 -1.132812 C 0.417969 -1.523438 0.328125 -1.976562 0.328125 -2.484375 C 0.328125 -2.980469 0.410156 -3.433594 0.578125 -3.835938 C 0.742188 -4.242188 0.992188 -4.550781 1.320312 -4.765625 C 1.652344 -4.984375 2.023438 -5.089844 2.433594 -5.089844 C 2.734375 -5.089844 3 -5.027344 3.234375 -4.902344 C 3.46875 -4.773438 3.660156 -4.609375 3.804688 -4.40625 L 3.804688 -6.871094 L 4.644531 -6.871094 L 4.644531 0 L 3.863281 0 M 1.195312 -2.484375 C 1.195312 -1.847656 1.328125 -1.371094 1.597656 -1.054688 C 1.867188 -0.738281 2.183594 -0.582031 2.550781 -0.582031 C 2.917969 -0.582031 3.230469 -0.730469 3.488281 -1.035156 C 3.746094 -1.335938 3.875 -1.796875 3.875 -2.414062 C 3.875 -3.09375 3.746094 -3.59375 3.484375 -3.914062 C 3.21875 -4.234375 2.898438 -4.390625 2.511719 -4.390625 C 2.136719 -4.390625 1.824219 -4.238281 1.574219 -3.933594 C 1.320312 -3.625 1.195312 -3.144531 1.195312 -2.484375 Z M 1.195312 -2.484375 "/>
</g>
<g id="glyph-1-12">
</g>
<g id="glyph-1-13">
<path d="M 2.488281 0 L 2.488281 -6.0625 L 0.226562 -6.0625 L 0.226562 -6.871094 L 5.671875 -6.871094 L 5.671875 -6.0625 L 3.398438 -6.0625 L 3.398438 0 Z M 2.488281 0 "/>
</g>
<g id="glyph-1-14">
<path d="M 0.625 0 L 0.625 -4.976562 L 1.382812 -4.976562 L 1.382812 -4.222656 C 1.578125 -4.578125 1.753906 -4.808594 1.917969 -4.921875 C 2.082031 -5.035156 2.265625 -5.089844 2.460938 -5.089844 C 2.746094 -5.089844 3.035156 -5 3.328125 -4.820312 L 3.039062 -4.035156 C 2.832031 -4.15625 2.625 -4.21875 2.417969 -4.21875 C 2.234375 -4.21875 2.070312 -4.164062 1.921875 -4.050781 C 1.773438 -3.941406 1.671875 -3.789062 1.609375 -3.589844 C 1.515625 -3.289062 1.46875 -2.960938 1.46875 -2.605469 L 1.46875 0 Z M 0.625 0 "/>
</g>
<g id="glyph-1-15">
<path d="M 3.882812 -0.613281 C 3.570312 -0.347656 3.269531 -0.160156 2.980469 -0.0507812 C 2.691406 0.0585938 2.378906 0.113281 2.046875 0.113281 C 1.5 0.113281 1.082031 -0.0195312 0.789062 -0.289062 C 0.492188 -0.554688 0.347656 -0.898438 0.347656 -1.3125 C 0.347656 -1.554688 0.402344 -1.777344 0.511719 -1.980469 C 0.625 -2.183594 0.769531 -2.34375 0.949219 -2.464844 C 1.128906 -2.585938 1.332031 -2.679688 1.554688 -2.742188 C 1.722656 -2.785156 1.972656 -2.828125 2.304688 -2.867188 C 2.988281 -2.949219 3.488281 -3.046875 3.8125 -3.160156 C 3.8125 -3.273438 3.816406 -3.347656 3.816406 -3.378906 C 3.816406 -3.722656 3.734375 -3.964844 3.578125 -4.105469 C 3.359375 -4.296875 3.039062 -4.390625 2.617188 -4.390625 C 2.21875 -4.390625 1.925781 -4.324219 1.738281 -4.183594 C 1.546875 -4.042969 1.40625 -3.796875 1.316406 -3.445312 L 0.492188 -3.558594 C 0.566406 -3.910156 0.691406 -4.195312 0.863281 -4.414062 C 1.035156 -4.628906 1.28125 -4.796875 1.609375 -4.914062 C 1.933594 -5.03125 2.308594 -5.089844 2.738281 -5.089844 C 3.164062 -5.089844 3.507812 -5.039062 3.773438 -4.941406 C 4.039062 -4.839844 4.234375 -4.714844 4.359375 -4.5625 C 4.484375 -4.410156 4.570312 -4.21875 4.621094 -3.988281 C 4.648438 -3.84375 4.664062 -3.585938 4.664062 -3.210938 L 4.664062 -2.085938 C 4.664062 -1.300781 4.683594 -0.804688 4.71875 -0.597656 C 4.753906 -0.390625 4.824219 -0.191406 4.929688 0 L 4.050781 0 C 3.960938 -0.175781 3.90625 -0.378906 3.882812 -0.613281 M 3.8125 -2.5 C 3.503906 -2.375 3.046875 -2.265625 2.433594 -2.179688 C 2.085938 -2.128906 1.839844 -2.074219 1.695312 -2.011719 C 1.554688 -1.949219 1.441406 -1.855469 1.363281 -1.738281 C 1.285156 -1.617188 1.246094 -1.484375 1.246094 -1.335938 C 1.246094 -1.109375 1.332031 -0.921875 1.503906 -0.773438 C 1.671875 -0.625 1.921875 -0.546875 2.25 -0.546875 C 2.574219 -0.546875 2.863281 -0.621094 3.117188 -0.761719 C 3.371094 -0.902344 3.554688 -1.097656 3.675781 -1.34375 C 3.765625 -1.535156 3.8125 -1.816406 3.8125 -2.1875 Z M 3.8125 -2.5 "/>
</g>
<g id="glyph-1-16">
<path d="M 2.476562 -0.753906 L 2.597656 -0.0078125 C 2.359375 0.0390625 2.148438 0.0664062 1.960938 0.0664062 C 1.652344 0.0664062 1.414062 0.015625 1.246094 -0.078125 C 1.078125 -0.175781 0.960938 -0.304688 0.890625 -0.460938 C 0.820312 -0.621094 0.789062 -0.953125 0.789062 -1.457031 L 0.789062 -4.320312 L 0.167969 -4.320312 L 0.167969 -4.976562 L 0.789062 -4.976562 L 0.789062 -6.210938 L 1.625 -6.71875 L 1.625 -4.976562 L 2.476562 -4.976562 L 2.476562 -4.320312 L 1.625 -4.320312 L 1.625 -1.410156 C 1.625 -1.171875 1.640625 -1.015625 1.671875 -0.945312 C 1.699219 -0.878906 1.75 -0.824219 1.816406 -0.78125 C 1.882812 -0.742188 1.980469 -0.722656 2.105469 -0.722656 C 2.199219 -0.722656 2.320312 -0.734375 2.476562 -0.753906 Z M 2.476562 -0.753906 "/>
</g>
<g id="glyph-1-17">
<path d="M 0.632812 0 L 0.632812 -4.976562 L 1.386719 -4.976562 L 1.386719 -4.28125 C 1.542969 -4.523438 1.75 -4.71875 2.011719 -4.867188 C 2.269531 -5.015625 2.566406 -5.089844 2.898438 -5.089844 C 3.265625 -5.089844 3.566406 -5.015625 3.804688 -4.859375 C 4.039062 -4.707031 4.207031 -4.492188 4.304688 -4.21875 C 4.695312 -4.800781 5.210938 -5.089844 5.839844 -5.089844 C 6.335938 -5.089844 6.714844 -4.953125 6.980469 -4.679688 C 7.246094 -4.40625 7.378906 -3.984375 7.378906 -3.417969 L 7.378906 0 L 6.539062 0 L 6.539062 -3.136719 C 6.539062 -3.472656 6.511719 -3.714844 6.457031 -3.863281 C 6.402344 -4.011719 6.304688 -4.132812 6.160156 -4.222656 C 6.015625 -4.3125 5.847656 -4.359375 5.652344 -4.359375 C 5.304688 -4.359375 5.011719 -4.242188 4.78125 -4.011719 C 4.550781 -3.777344 4.433594 -3.40625 4.433594 -2.890625 L 4.433594 0 L 3.589844 0 L 3.589844 -3.234375 C 3.589844 -3.609375 3.523438 -3.890625 3.382812 -4.078125 C 3.246094 -4.265625 3.023438 -4.359375 2.710938 -4.359375 C 2.472656 -4.359375 2.253906 -4.296875 2.050781 -4.171875 C 1.847656 -4.046875 1.703125 -3.863281 1.613281 -3.625 C 1.523438 -3.382812 1.476562 -3.035156 1.476562 -2.582031 L 1.476562 0 Z M 0.632812 0 "/>
</g>
<g id="glyph-1-18">
<path d="M 0.632812 0 L 0.632812 -4.976562 L 1.390625 -4.976562 L 1.390625 -4.269531 C 1.757812 -4.816406 2.285156 -5.089844 2.976562 -5.089844 C 3.277344 -5.089844 3.550781 -5.035156 3.804688 -4.929688 C 4.054688 -4.820312 4.242188 -4.679688 4.367188 -4.503906 C 4.492188 -4.328125 4.582031 -4.121094 4.632812 -3.882812 C 4.664062 -3.726562 4.679688 -3.453125 4.679688 -3.0625 L 4.679688 0 L 3.835938 0 L 3.835938 -3.027344 C 3.835938 -3.371094 3.800781 -3.628906 3.734375 -3.800781 C 3.671875 -3.96875 3.554688 -4.105469 3.386719 -4.207031 C 3.21875 -4.308594 3.023438 -4.359375 2.796875 -4.359375 C 2.4375 -4.359375 2.128906 -4.246094 1.867188 -4.015625 C 1.605469 -3.789062 1.476562 -3.355469 1.476562 -2.71875 L 1.476562 0 Z M 0.632812 0 "/>
</g>
<g id="glyph-1-19">
<path d="M 5.644531 -2.410156 L 6.554688 -2.179688 C 6.363281 -1.433594 6.019531 -0.863281 5.523438 -0.472656 C 5.027344 -0.078125 4.421875 0.117188 3.707031 0.117188 C 2.96875 0.117188 2.363281 -0.0351562 1.902344 -0.335938 C 1.4375 -0.636719 1.082031 -1.074219 0.839844 -1.644531 C 0.597656 -2.21875 0.476562 -2.832031 0.476562 -3.488281 C 0.476562 -4.203125 0.613281 -4.828125 0.886719 -5.359375 C 1.160156 -5.894531 1.550781 -6.296875 2.054688 -6.574219 C 2.558594 -6.851562 3.117188 -6.988281 3.722656 -6.988281 C 4.410156 -6.988281 4.988281 -6.8125 5.457031 -6.464844 C 5.925781 -6.113281 6.25 -5.621094 6.4375 -4.988281 L 5.539062 -4.777344 C 5.382812 -5.277344 5.148438 -5.640625 4.847656 -5.867188 C 4.542969 -6.097656 4.164062 -6.210938 3.703125 -6.210938 C 3.175781 -6.210938 2.734375 -6.085938 2.378906 -5.832031 C 2.023438 -5.578125 1.773438 -5.238281 1.632812 -4.8125 C 1.488281 -4.386719 1.414062 -3.945312 1.414062 -3.492188 C 1.414062 -2.90625 1.5 -2.398438 1.671875 -1.960938 C 1.839844 -1.527344 2.105469 -1.199219 2.464844 -0.984375 C 2.824219 -0.769531 3.214844 -0.660156 3.632812 -0.660156 C 4.140625 -0.660156 4.574219 -0.808594 4.925781 -1.101562 C 5.28125 -1.394531 5.519531 -1.832031 5.644531 -2.410156 Z M 5.644531 -2.410156 "/>
</g>
<g id="glyph-2-0">
<path d="M 0 -0.925781 L -8.589844 -0.925781 L -8.589844 -4.167969 C -8.589844 -4.734375 -8.5625 -5.171875 -8.507812 -5.472656 C -8.4375 -5.894531 -8.304688 -6.246094 -8.105469 -6.535156 C -7.910156 -6.816406 -7.632812 -7.046875 -7.277344 -7.222656 C -6.921875 -7.394531 -6.53125 -7.484375 -6.105469 -7.484375 C -5.375 -7.484375 -4.757812 -7.25 -4.25 -6.785156 C -3.746094 -6.320312 -3.492188 -5.480469 -3.492188 -4.265625 L -3.492188 -2.0625 L 0 -2.0625 L 0 -0.925781 M -4.507812 -2.0625 L -4.507812 -4.28125 C -4.507812 -5.015625 -4.640625 -5.539062 -4.914062 -5.847656 C -5.1875 -6.15625 -5.574219 -6.3125 -6.070312 -6.3125 C -6.429688 -6.3125 -6.738281 -6.21875 -6.992188 -6.039062 C -7.25 -5.855469 -7.417969 -5.617188 -7.5 -5.320312 C -7.550781 -5.128906 -7.578125 -4.777344 -7.578125 -4.261719 L -7.578125 -2.0625 Z M -4.507812 -2.0625 "/>
</g>
<g id="glyph-2-1">
<path d="M 0 -0.78125 L -6.222656 -0.78125 L -6.222656 -1.730469 L -5.28125 -1.730469 C -5.71875 -1.96875 -6.011719 -2.195312 -6.152344 -2.398438 C -6.292969 -2.605469 -6.363281 -2.828125 -6.363281 -3.078125 C -6.363281 -3.429688 -6.25 -3.792969 -6.023438 -4.160156 L -5.046875 -3.796875 C -5.195312 -3.539062 -5.273438 -3.28125 -5.273438 -3.023438 C -5.273438 -2.792969 -5.203125 -2.585938 -5.066406 -2.402344 C -4.925781 -2.21875 -4.734375 -2.085938 -4.488281 -2.011719 C -4.113281 -1.894531 -3.703125 -1.835938 -3.257812 -1.835938 L 0 -1.835938 Z M 0 -0.78125 "/>
</g>
<g id="glyph-2-2">
<path d="M -3.109375 -0.398438 C -4.261719 -0.398438 -5.117188 -0.71875 -5.671875 -1.359375 C -6.132812 -1.894531 -6.363281 -2.546875 -6.363281 -3.316406 C -6.363281 -4.171875 -6.082031 -4.871094 -5.523438 -5.414062 C -4.960938 -5.957031 -4.1875 -6.226562 -3.199219 -6.226562 C -2.398438 -6.226562 -1.769531 -6.109375 -1.308594 -5.867188 C -0.851562 -5.628906 -0.492188 -5.277344 -0.238281 -4.820312 C 0.0117188 -4.359375 0.140625 -3.859375 0.140625 -3.316406 C 0.140625 -2.445312 -0.140625 -1.742188 -0.695312 -1.203125 C -1.253906 -0.667969 -2.058594 -0.398438 -3.109375 -0.398438 M -3.109375 -1.484375 C -2.3125 -1.484375 -1.71875 -1.65625 -1.320312 -2.003906 C -0.925781 -2.351562 -0.726562 -2.789062 -0.726562 -3.316406 C -0.726562 -3.839844 -0.925781 -4.273438 -1.324219 -4.625 C -1.722656 -4.96875 -2.328125 -5.144531 -3.144531 -5.144531 C -3.914062 -5.144531 -4.5 -4.96875 -4.894531 -4.621094 C -5.292969 -4.269531 -5.492188 -3.835938 -5.492188 -3.316406 C -5.492188 -2.789062 -5.292969 -2.351562 -4.898438 -2.003906 C -4.503906 -1.65625 -3.90625 -1.484375 -3.109375 -1.484375 Z M -3.109375 -1.484375 "/>
</g>
<g id="glyph-2-3">
<path d="M 2.382812 -0.789062 L -6.222656 -0.792969 L -6.222656 -1.753906 L -5.414062 -1.753906 C -5.730469 -1.976562 -5.96875 -2.234375 -6.125 -2.519531 C -6.285156 -2.804688 -6.363281 -3.148438 -6.363281 -3.558594 C -6.363281 -4.085938 -6.226562 -4.554688 -5.953125 -4.960938 C -5.679688 -5.367188 -5.292969 -5.675781 -4.796875 -5.882812 C -4.296875 -6.089844 -3.75 -6.195312 -3.15625 -6.195312 C -2.519531 -6.195312 -1.949219 -6.078125 -1.4375 -5.851562 C -0.929688 -5.621094 -0.539062 -5.289062 -0.265625 -4.855469 C 0.00390625 -4.417969 0.140625 -3.960938 0.140625 -3.480469 C 0.140625 -3.128906 0.0664062 -2.8125 -0.0820312 -2.535156 C -0.230469 -2.253906 -0.417969 -2.023438 -0.644531 -1.84375 L 2.382812 -1.84375 L 2.382812 -0.789062 M -3.078125 -1.746094 C -2.273438 -1.746094 -1.683594 -1.90625 -1.300781 -2.234375 C -0.917969 -2.554688 -0.726562 -2.949219 -0.726562 -3.410156 C -0.726562 -3.878906 -0.925781 -4.28125 -1.320312 -4.613281 C -1.71875 -4.949219 -2.332031 -5.113281 -3.164062 -5.117188 C -3.957031 -5.113281 -4.550781 -4.953125 -4.945312 -4.625 C -5.339844 -4.300781 -5.535156 -3.910156 -5.539062 -3.457031 C -5.535156 -3.007812 -5.328125 -2.609375 -4.90625 -2.265625 C -4.488281 -1.917969 -3.875 -1.746094 -3.078125 -1.746094 Z M -3.078125 -1.746094 "/>
</g>
<g id="glyph-2-4">
<path d="M -0.941406 -3.09375 L -0.0117188 -3.246094 C 0.0507812 -2.949219 0.0820312 -2.683594 0.0820312 -2.449219 C 0.0820312 -2.066406 0.0195312 -1.769531 -0.0976562 -1.558594 C -0.21875 -1.347656 -0.378906 -1.199219 -0.578125 -1.113281 C -0.773438 -1.027344 -1.1875 -0.984375 -1.820312 -0.984375 L -5.402344 -0.984375 L -5.402344 -0.210938 L -6.222656 -0.210938 L -6.222656 -0.984375 L -7.765625 -0.984375 L -8.398438 -2.035156 L -6.222656 -2.035156 L -6.222656 -3.09375 L -5.402344 -3.09375 L -5.402344 -2.035156 L -1.761719 -2.03125 C -1.460938 -2.03125 -1.269531 -2.050781 -1.183594 -2.089844 C -1.097656 -2.125 -1.027344 -2.1875 -0.976562 -2.269531 C -0.925781 -2.355469 -0.902344 -2.472656 -0.902344 -2.632812 C -0.902344 -2.75 -0.914062 -2.902344 -0.941406 -3.09375 Z M -0.941406 -3.09375 "/>
</g>
<g id="glyph-2-5">
<path d="M -7.375 -0.796875 L -8.589844 -0.796875 L -8.589844 -1.851562 L -7.375 -1.851562 L -7.375 -0.796875 M 0 -0.796875 L -6.222656 -0.796875 L -6.222656 -1.851562 L 0 -1.851562 Z M 0 -0.796875 "/>
</g>
<g id="glyph-2-6">
<path d="M 0 -0.789062 L -6.222656 -0.792969 L -6.222656 -1.742188 L -5.335938 -1.742188 C -6.019531 -2.195312 -6.363281 -2.855469 -6.363281 -3.722656 C -6.363281 -4.09375 -6.296875 -4.441406 -6.160156 -4.753906 C -6.027344 -5.070312 -5.847656 -5.304688 -5.632812 -5.460938 C -5.410156 -5.617188 -5.152344 -5.726562 -4.851562 -5.789062 C -4.65625 -5.828125 -4.3125 -5.847656 -3.824219 -5.847656 L 0 -5.847656 L 0 -4.792969 L -3.785156 -4.792969 C -4.214844 -4.792969 -4.535156 -4.75 -4.75 -4.671875 C -4.960938 -4.585938 -5.132812 -4.441406 -5.257812 -4.234375 C -5.386719 -4.023438 -5.449219 -3.78125 -5.449219 -3.5 C -5.449219 -3.046875 -5.304688 -2.660156 -5.023438 -2.335938 C -4.734375 -2.007812 -4.195312 -1.847656 -3.398438 -1.847656 L 0 -1.84375 Z M 0 -0.789062 "/>
</g>
<g id="glyph-2-7">
</g>
<g id="glyph-2-8">
<path d="M 0 -3.382812 L -8.589844 -0.0546875 L -8.589844 -1.285156 L -2.351562 -3.515625 C -1.847656 -3.695312 -1.378906 -3.84375 -0.941406 -3.96875 C -1.410156 -4.097656 -1.878906 -4.253906 -2.347656 -4.429688 L -8.589844 -6.75 L -8.589844 -7.910156 L 0 -4.546875 Z M 0 -3.382812 "/>
</g>
<g id="glyph-2-9">
<path d="M -0.765625 -4.851562 C -0.433594 -4.460938 -0.199219 -4.085938 -0.0625 -3.722656 C 0.0703125 -3.363281 0.140625 -2.972656 0.140625 -2.5625 C 0.140625 -1.875 -0.0273438 -1.351562 -0.359375 -0.984375 C -0.695312 -0.617188 -1.121094 -0.433594 -1.640625 -0.433594 C -1.945312 -0.433594 -2.222656 -0.503906 -2.476562 -0.640625 C -2.726562 -0.78125 -2.929688 -0.960938 -3.082031 -1.1875 C -3.234375 -1.410156 -3.347656 -1.664062 -3.429688 -1.945312 C -3.480469 -2.152344 -3.535156 -2.464844 -3.585938 -2.882812 C -3.6875 -3.734375 -3.808594 -4.359375 -3.949219 -4.765625 C -4.09375 -4.765625 -4.183594 -4.769531 -4.226562 -4.769531 C -4.652344 -4.769531 -4.957031 -4.671875 -5.132812 -4.46875 C -5.371094 -4.203125 -5.492188 -3.800781 -5.492188 -3.269531 C -5.492188 -2.773438 -5.402344 -2.40625 -5.230469 -2.171875 C -5.054688 -1.933594 -4.746094 -1.757812 -4.304688 -1.648438 L -4.445312 -0.617188 C -4.886719 -0.707031 -5.246094 -0.863281 -5.515625 -1.078125 C -5.789062 -1.292969 -5.996094 -1.601562 -6.144531 -2.011719 C -6.289062 -2.414062 -6.363281 -2.886719 -6.363281 -3.421875 C -6.363281 -3.953125 -6.300781 -4.382812 -6.175781 -4.71875 C -6.050781 -5.046875 -5.894531 -5.292969 -5.703125 -5.449219 C -5.515625 -5.605469 -5.273438 -5.714844 -4.984375 -5.777344 C -4.804688 -5.8125 -4.484375 -5.828125 -4.015625 -5.828125 L -2.605469 -5.828125 C -1.628906 -5.828125 -1.007812 -5.851562 -0.746094 -5.898438 C -0.488281 -5.941406 -0.238281 -6.03125 0 -6.164062 L 0 -5.0625 C -0.21875 -4.953125 -0.472656 -4.882812 -0.765625 -4.851562 M -3.121094 -4.765625 C -2.964844 -4.378906 -2.832031 -3.804688 -2.726562 -3.039062 C -2.660156 -2.605469 -2.589844 -2.300781 -2.515625 -2.121094 C -2.433594 -1.941406 -2.320312 -1.800781 -2.171875 -1.707031 C -2.019531 -1.605469 -1.851562 -1.558594 -1.671875 -1.558594 C -1.386719 -1.558594 -1.152344 -1.664062 -0.964844 -1.878906 C -0.777344 -2.089844 -0.683594 -2.402344 -0.683594 -2.8125 C -0.683594 -3.21875 -0.773438 -3.578125 -0.953125 -3.898438 C -1.128906 -4.210938 -1.371094 -4.445312 -1.679688 -4.59375 C -1.917969 -4.707031 -2.269531 -4.761719 -2.734375 -4.765625 Z M -3.121094 -4.765625 "/>
</g>
<g id="glyph-2-10">
<path d="M -2.277344 -4.851562 L -2.144531 -5.890625 C -1.429688 -5.773438 -0.871094 -5.484375 -0.464844 -5.019531 C -0.0625 -4.550781 0.140625 -3.976562 0.140625 -3.296875 C 0.140625 -2.445312 -0.136719 -1.761719 -0.695312 -1.246094 C -1.25 -0.726562 -2.046875 -0.46875 -3.085938 -0.46875 C -3.757812 -0.46875 -4.347656 -0.582031 -4.851562 -0.804688 C -5.355469 -1.027344 -5.734375 -1.363281 -5.984375 -1.820312 C -6.238281 -2.273438 -6.363281 -2.769531 -6.363281 -3.304688 C -6.363281 -3.980469 -6.191406 -4.53125 -5.851562 -4.960938 C -5.507812 -5.390625 -5.023438 -5.667969 -4.394531 -5.789062 L -4.234375 -4.765625 C -4.652344 -4.664062 -4.96875 -4.492188 -5.179688 -4.246094 C -5.390625 -3.996094 -5.496094 -3.699219 -5.496094 -3.347656 C -5.496094 -2.8125 -5.304688 -2.382812 -4.925781 -2.050781 C -4.542969 -1.71875 -3.941406 -1.554688 -3.117188 -1.554688 C -2.28125 -1.554688 -1.671875 -1.710938 -1.292969 -2.03125 C -0.917969 -2.351562 -0.726562 -2.769531 -0.726562 -3.289062 C -0.726562 -3.699219 -0.851562 -4.046875 -1.105469 -4.324219 C -1.359375 -4.601562 -1.75 -4.777344 -2.277344 -4.851562 Z M -2.277344 -4.851562 "/>
</g>
<g id="glyph-2-11">
<path d="M -2.003906 -5.050781 L -1.867188 -6.140625 C -1.230469 -5.96875 -0.738281 -5.648438 -0.386719 -5.1875 C -0.0351562 -4.71875 0.140625 -4.125 0.140625 -3.40625 C 0.140625 -2.492188 -0.140625 -1.773438 -0.699219 -1.238281 C -1.261719 -0.707031 -2.046875 -0.441406 -3.058594 -0.441406 C -4.105469 -0.441406 -4.917969 -0.710938 -5.496094 -1.25 C -6.074219 -1.789062 -6.363281 -2.484375 -6.363281 -3.347656 C -6.363281 -4.179688 -6.078125 -4.859375 -5.515625 -5.382812 C -4.945312 -5.914062 -4.148438 -6.175781 -3.121094 -6.175781 C -3.058594 -6.175781 -2.964844 -6.171875 -2.839844 -6.171875 L -2.84375 -1.53125 C -2.15625 -1.566406 -1.632812 -1.761719 -1.269531 -2.109375 C -0.90625 -2.457031 -0.726562 -2.890625 -0.726562 -3.410156 C -0.726562 -3.796875 -0.828125 -4.125 -1.03125 -4.398438 C -1.234375 -4.671875 -1.558594 -4.890625 -2.003906 -5.050781 M -3.710938 -1.589844 L -3.707031 -5.0625 C -4.230469 -5.015625 -4.625 -4.882812 -4.886719 -4.664062 C -5.292969 -4.328125 -5.496094 -3.890625 -5.496094 -3.359375 C -5.496094 -2.871094 -5.332031 -2.464844 -5.007812 -2.136719 C -4.683594 -1.804688 -4.25 -1.625 -3.710938 -1.589844 Z M -3.710938 -1.589844 "/>
</g>
<g id="glyph-2-12">
<path d="M 0 -4.828125 L -0.785156 -4.828125 C -0.167969 -4.433594 0.140625 -3.851562 0.140625 -3.085938 C 0.140625 -2.589844 0.00390625 -2.136719 -0.269531 -1.71875 C -0.542969 -1.304688 -0.925781 -0.980469 -1.414062 -0.753906 C -1.90625 -0.523438 -2.46875 -0.410156 -3.105469 -0.410156 C -3.726562 -0.410156 -4.289062 -0.511719 -4.796875 -0.722656 C -5.300781 -0.925781 -5.6875 -1.238281 -5.960938 -1.652344 C -6.226562 -2.066406 -6.363281 -2.527344 -6.363281 -3.042969 C -6.363281 -3.417969 -6.285156 -3.75 -6.125 -4.042969 C -5.96875 -4.335938 -5.761719 -4.574219 -5.507812 -4.757812 L -8.589844 -4.757812 L -8.589844 -5.808594 L 0 -5.804688 L 0 -4.828125 M -3.105469 -1.496094 C -2.308594 -1.492188 -1.710938 -1.660156 -1.316406 -2 C -0.921875 -2.332031 -0.726562 -2.730469 -0.726562 -3.1875 C -0.726562 -3.648438 -0.914062 -4.039062 -1.292969 -4.363281 C -1.667969 -4.683594 -2.242188 -4.84375 -3.015625 -4.84375 C -3.867188 -4.84375 -4.492188 -4.679688 -4.890625 -4.351562 C -5.289062 -4.023438 -5.492188 -3.621094 -5.492188 -3.140625 C -5.492188 -2.671875 -5.296875 -2.28125 -4.914062 -1.964844 C -4.53125 -1.652344 -3.929688 -1.492188 -3.105469 -1.496094 Z M -3.105469 -1.496094 "/>
</g>
</g>
<clipPath id="clip-0">
<path clip-rule="nonzero" d="M 46.144531 5.976562 L 498.019531 5.976562 L 498.019531 337.75 L 46.144531 337.75 Z M 46.144531 5.976562 "/>
</clipPath>
<clipPath id="clip-1">
<path clip-rule="nonzero" d="M 46.144531 5.976562 L 498.019531 5.976562 L 498.019531 337.75 L 46.144531 337.75 Z M 46.144531 5.976562 "/>
</clipPath>
</defs>
<rect x="-50.4" y="-36" width="604.8" height="432" fill="rgb(100%, 100%, 100%)" fill-opacity="1"/>
<rect x="-50.4" y="-36" width="604.8" height="432" fill="rgb(100%, 100%, 100%)" fill-opacity="1"/>
<path fill="none" stroke-width="1.163976" stroke-linecap="round" stroke-linejoin="round" stroke="rgb(100%, 100%, 100%)" stroke-opacity="1" stroke-miterlimit="10" d="M 0 360 L 504 360 L 504 0 L 0 0 Z M 0 360 "/>
<g clip-path="url(#clip-0)">
<path fill-rule="nonzero" fill="rgb(100%, 100%, 100%)" fill-opacity="1" d="M 46.144531 337.75 L 498.019531 337.75 L 498.019531 5.976562 L 46.144531 5.976562 Z M 46.144531 337.75 "/>
</g>
<path fill-rule="nonzero" fill="rgb(69.019608%, 18.823529%, 37.647059%)" fill-opacity="1" stroke-width="1.163976" stroke-linecap="butt" stroke-linejoin="miter" stroke="rgb(0%, 0%, 0%)" stroke-opacity="1" stroke-miterlimit="10" d="M 97.496094 322.667969 L 241.273438 322.667969 L 241.273438 94.664062 L 97.496094 94.664062 Z M 97.496094 322.667969 "/>
<path fill-rule="nonzero" fill="rgb(85.098039%, 85.098039%, 85.098039%)" fill-opacity="1" stroke-width="1.163976" stroke-linecap="butt" stroke-linejoin="miter" stroke="rgb(0%, 0%, 0%)" stroke-opacity="1" stroke-miterlimit="10" d="M 302.894531 322.667969 L 446.671875 322.667969 L 446.671875 275.628906 L 302.894531 275.628906 Z M 302.894531 322.667969 "/>
<path fill-rule="nonzero" fill="rgb(85.098039%, 85.098039%, 85.098039%)" fill-opacity="1" stroke-width="1.163976" stroke-linecap="butt" stroke-linejoin="miter" stroke="rgb(0%, 0%, 0%)" stroke-opacity="1" stroke-miterlimit="10" d="M 97.496094 322.667969 L 241.273438 322.667969 L 241.273438 251.371094 L 97.496094 251.371094 Z M 97.496094 322.667969 "/>
<path fill="none" stroke-width="1.163976" stroke-linecap="butt" stroke-linejoin="round" stroke="rgb(0%, 0%, 0%)" stroke-opacity="1" stroke-miterlimit="10" d="M 364.511719 272.675781 L 385.054688 272.675781 "/>
<path fill="none" stroke-width="1.163976" stroke-linecap="butt" stroke-linejoin="round" stroke="rgb(0%, 0%, 0%)" stroke-opacity="1" stroke-miterlimit="10" d="M 374.785156 272.675781 L 374.785156 278.582031 "/>
<path fill="none" stroke-width="1.163976" stroke-linecap="butt" stroke-linejoin="round" stroke="rgb(0%, 0%, 0%)" stroke-opacity="1" stroke-miterlimit="10" d="M 364.511719 278.582031 L 385.054688 278.582031 "/>
<path fill="none" stroke-width="1.163976" stroke-linecap="butt" stroke-linejoin="round" stroke="rgb(0%, 0%, 0%)" stroke-opacity="1" stroke-miterlimit="10" d="M 159.113281 248.949219 L 179.65625 248.949219 "/>
<path fill="none" stroke-width="1.163976" stroke-linecap="butt" stroke-linejoin="round" stroke="rgb(0%, 0%, 0%)" stroke-opacity="1" stroke-miterlimit="10" d="M 169.386719 248.949219 L 169.386719 253.796875 "/>
<path fill="none" stroke-width="1.163976" stroke-linecap="butt" stroke-linejoin="round" stroke="rgb(0%, 0%, 0%)" stroke-opacity="1" stroke-miterlimit="10" d="M 159.113281 253.796875 L 179.65625 253.796875 "/>
<path fill="none" stroke-width="1.163976" stroke-linecap="butt" stroke-linejoin="round" stroke="rgb(0%, 0%, 0%)" stroke-opacity="1" stroke-miterlimit="10" d="M 159.113281 90.863281 L 179.65625 90.863281 "/>
<path fill="none" stroke-width="1.163976" stroke-linecap="butt" stroke-linejoin="round" stroke="rgb(0%, 0%, 0%)" stroke-opacity="1" stroke-miterlimit="10" d="M 169.386719 90.863281 L 169.386719 98.472656 "/>
<path fill="none" stroke-width="1.163976" stroke-linecap="butt" stroke-linejoin="round" stroke="rgb(0%, 0%, 0%)" stroke-opacity="1" stroke-miterlimit="10" d="M 159.113281 98.472656 L 179.65625 98.472656 "/>
<g fill="rgb(0%, 0%, 0%)" fill-opacity="1">
<use xlink:href="#glyph-0-0" x="361.257812" y="268.6875"/>
<use xlink:href="#glyph-0-1" x="367.270958" y="268.6875"/>
<use xlink:href="#glyph-0-0" x="370.274891" y="268.6875"/>
<use xlink:href="#glyph-0-2" x="376.288036" y="268.6875"/>
<use xlink:href="#glyph-0-3" x="382.301182" y="268.6875"/>
</g>
<g fill="rgb(0%, 0%, 0%)" fill-opacity="1">
<use xlink:href="#glyph-0-0" x="155.859375" y="244.433594"/>
<use xlink:href="#glyph-0-1" x="161.87252" y="244.433594"/>
<use xlink:href="#glyph-0-0" x="164.876453" y="244.433594"/>
<use xlink:href="#glyph-0-4" x="170.889599" y="244.433594"/>
<use xlink:href="#glyph-0-5" x="176.902744" y="244.433594"/>
</g>
<g fill="rgb(0%, 0%, 0%)" fill-opacity="1">
<use xlink:href="#glyph-0-0" x="155.859375" y="87.726562"/>
<use xlink:href="#glyph-0-1" x="161.87252" y="87.726562"/>
<use xlink:href="#glyph-0-6" x="164.876453" y="87.726562"/>
<use xlink:href="#glyph-0-0" x="170.889599" y="87.726562"/>
<use xlink:href="#glyph-0-3" x="176.902744" y="87.726562"/>
</g>
<g clip-path="url(#clip-1)">
<path fill="none" stroke-width="1.163976" stroke-linecap="round" stroke-linejoin="round" stroke="rgb(0%, 0%, 0%)" stroke-opacity="1" stroke-miterlimit="10" d="M 46.144531 337.75 L 498.019531 337.75 L 498.019531 5.976562 L 46.144531 5.976562 Z M 46.144531 337.75 "/>
</g>
<path fill="none" stroke-width="1.163976" stroke-linecap="square" stroke-linejoin="round" stroke="rgb(0%, 0%, 0%)" stroke-opacity="1" stroke-miterlimit="10" d="M 46.144531 337.75 L 46.144531 5.976562 "/>
<g fill="rgb(0%, 0%, 0%)" fill-opacity="1">
<use xlink:href="#glyph-1-0" x="22.082031" y="326.605469"/>
<use xlink:href="#glyph-1-1" x="27.421094" y="326.605469"/>
<use xlink:href="#glyph-1-0" x="30.088281" y="326.605469"/>
<use xlink:href="#glyph-1-0" x="35.427344" y="326.605469"/>
</g>
<g fill="rgb(0%, 0%, 0%)" fill-opacity="1">
<use xlink:href="#glyph-1-0" x="22.082031" y="288.90625"/>
<use xlink:href="#glyph-1-1" x="27.421094" y="288.90625"/>
<use xlink:href="#glyph-1-0" x="30.088281" y="288.90625"/>
<use xlink:href="#glyph-1-2" x="35.427344" y="288.90625"/>
</g>
<g fill="rgb(0%, 0%, 0%)" fill-opacity="1">
<use xlink:href="#glyph-1-0" x="22.082031" y="251.203125"/>
<use xlink:href="#glyph-1-1" x="27.421094" y="251.203125"/>
<use xlink:href="#glyph-1-3" x="30.088281" y="251.203125"/>
<use xlink:href="#glyph-1-0" x="35.427344" y="251.203125"/>
</g>
<g fill="rgb(0%, 0%, 0%)" fill-opacity="1">
<use xlink:href="#glyph-1-0" x="22.082031" y="213.5"/>
<use xlink:href="#glyph-1-1" x="27.421094" y="213.5"/>
<use xlink:href="#glyph-1-3" x="30.088281" y="213.5"/>
<use xlink:href="#glyph-1-2" x="35.427344" y="213.5"/>
</g>
<g fill="rgb(0%, 0%, 0%)" fill-opacity="1">
<use xlink:href="#glyph-1-0" x="22.082031" y="175.800781"/>
<use xlink:href="#glyph-1-1" x="27.421094" y="175.800781"/>
<use xlink:href="#glyph-1-4" x="30.088281" y="175.800781"/>
<use xlink:href="#glyph-1-0" x="35.427344" y="175.800781"/>
</g>
<g fill="rgb(0%, 0%, 0%)" fill-opacity="1">
<use xlink:href="#glyph-1-0" x="22.082031" y="138.097656"/>
<use xlink:href="#glyph-1-1" x="27.421094" y="138.097656"/>
<use xlink:href="#glyph-1-4" x="30.088281" y="138.097656"/>
<use xlink:href="#glyph-1-2" x="35.427344" y="138.097656"/>
</g>
<g fill="rgb(0%, 0%, 0%)" fill-opacity="1">
<use xlink:href="#glyph-1-0" x="22.082031" y="100.398438"/>
<use xlink:href="#glyph-1-1" x="27.421094" y="100.398438"/>
<use xlink:href="#glyph-1-5" x="30.088281" y="100.398438"/>
<use xlink:href="#glyph-1-0" x="35.427344" y="100.398438"/>
</g>
<g fill="rgb(0%, 0%, 0%)" fill-opacity="1">
<use xlink:href="#glyph-1-0" x="22.082031" y="62.695312"/>
<use xlink:href="#glyph-1-1" x="27.421094" y="62.695312"/>
<use xlink:href="#glyph-1-5" x="30.088281" y="62.695312"/>
<use xlink:href="#glyph-1-2" x="35.427344" y="62.695312"/>
</g>
<g fill="rgb(0%, 0%, 0%)" fill-opacity="1">
<use xlink:href="#glyph-1-0" x="22.082031" y="24.992188"/>
<use xlink:href="#glyph-1-1" x="27.421094" y="24.992188"/>
<use xlink:href="#glyph-1-6" x="30.088281" y="24.992188"/>
<use xlink:href="#glyph-1-0" x="35.427344" y="24.992188"/>
</g>
<path fill="none" stroke-width="1.163976" stroke-linecap="butt" stroke-linejoin="round" stroke="rgb(0%, 0%, 0%)" stroke-opacity="1" stroke-miterlimit="10" d="M 43.15625 322.667969 L 46.144531 322.667969 "/>
<path fill="none" stroke-width="1.163976" stroke-linecap="butt" stroke-linejoin="round" stroke="rgb(0%, 0%, 0%)" stroke-opacity="1" stroke-miterlimit="10" d="M 43.15625 284.96875 L 46.144531 284.96875 "/>
<path fill="none" stroke-width="1.163976" stroke-linecap="butt" stroke-linejoin="round" stroke="rgb(0%, 0%, 0%)" stroke-opacity="1" stroke-miterlimit="10" d="M 43.15625 247.265625 L 46.144531 247.265625 "/>
<path fill="none" stroke-width="1.163976" stroke-linecap="butt" stroke-linejoin="round" stroke="rgb(0%, 0%, 0%)" stroke-opacity="1" stroke-miterlimit="10" d="M 43.15625 209.566406 L 46.144531 209.566406 "/>
<path fill="none" stroke-width="1.163976" stroke-linecap="butt" stroke-linejoin="round" stroke="rgb(0%, 0%, 0%)" stroke-opacity="1" stroke-miterlimit="10" d="M 43.15625 171.863281 L 46.144531 171.863281 "/>
<path fill="none" stroke-width="1.163976" stroke-linecap="butt" stroke-linejoin="round" stroke="rgb(0%, 0%, 0%)" stroke-opacity="1" stroke-miterlimit="10" d="M 43.15625 134.164062 L 46.144531 134.164062 "/>
<path fill="none" stroke-width="1.163976" stroke-linecap="butt" stroke-linejoin="round" stroke="rgb(0%, 0%, 0%)" stroke-opacity="1" stroke-miterlimit="10" d="M 43.15625 96.460938 L 46.144531 96.460938 "/>
<path fill="none" stroke-width="1.163976" stroke-linecap="butt" stroke-linejoin="round" stroke="rgb(0%, 0%, 0%)" stroke-opacity="1" stroke-miterlimit="10" d="M 43.15625 58.757812 L 46.144531 58.757812 "/>
<path fill="none" stroke-width="1.163976" stroke-linecap="butt" stroke-linejoin="round" stroke="rgb(0%, 0%, 0%)" stroke-opacity="1" stroke-miterlimit="10" d="M 43.15625 21.058594 L 46.144531 21.058594 "/>
<path fill="none" stroke-width="1.163976" stroke-linecap="square" stroke-linejoin="round" stroke="rgb(0%, 0%, 0%)" stroke-opacity="1" stroke-miterlimit="10" d="M 46.144531 337.75 L 498.023438 337.75 "/>
<path fill="none" stroke-width="1.163976" stroke-linecap="butt" stroke-linejoin="round" stroke="rgb(0%, 0%, 0%)" stroke-opacity="1" stroke-miterlimit="10" d="M 169.386719 340.738281 L 169.386719 337.75 "/>
<path fill="none" stroke-width="1.163976" stroke-linecap="butt" stroke-linejoin="round" stroke="rgb(0%, 0%, 0%)" stroke-opacity="1" stroke-miterlimit="10" d="M 374.785156 340.738281 L 374.785156 337.75 "/>
<g fill="rgb(0%, 0%, 0%)" fill-opacity="1">
<use xlink:href="#glyph-1-7" x="131.234375" y="351.003906"/>
<use xlink:href="#glyph-1-8" x="137.6375" y="351.003906"/>
<use xlink:href="#glyph-1-8" x="142.976562" y="351.003906"/>
<use xlink:href="#glyph-1-9" x="148.315625" y="351.003906"/>
<use xlink:href="#glyph-1-10" x="150.448438" y="351.003906"/>
<use xlink:href="#glyph-1-11" x="155.7875" y="351.003906"/>
<use xlink:href="#glyph-1-12" x="161.126563" y="351.003906"/>
<use xlink:href="#glyph-1-13" x="163.79375" y="351.003906"/>
<use xlink:href="#glyph-1-14" x="169.657813" y="351.003906"/>
<use xlink:href="#glyph-1-10" x="172.854688" y="351.003906"/>
<use xlink:href="#glyph-1-15" x="178.19375" y="351.003906"/>
<use xlink:href="#glyph-1-16" x="183.532813" y="351.003906"/>
<use xlink:href="#glyph-1-17" x="186.2" y="351.003906"/>
<use xlink:href="#glyph-1-10" x="194.196875" y="351.003906"/>
<use xlink:href="#glyph-1-18" x="199.535938" y="351.003906"/>
<use xlink:href="#glyph-1-16" x="204.875" y="351.003906"/>
</g>
<g fill="rgb(0%, 0%, 0%)" fill-opacity="1">
<use xlink:href="#glyph-1-19" x="359.3125" y="351.003906"/>
<use xlink:href="#glyph-1-8" x="366.245313" y="351.003906"/>
<use xlink:href="#glyph-1-18" x="371.584375" y="351.003906"/>
<use xlink:href="#glyph-1-16" x="376.923438" y="351.003906"/>
<use xlink:href="#glyph-1-14" x="379.590625" y="351.003906"/>
<use xlink:href="#glyph-1-8" x="382.7875" y="351.003906"/>
<use xlink:href="#glyph-1-9" x="388.126563" y="351.003906"/>
</g>
<g fill="rgb(0%, 0%, 0%)" fill-opacity="1">
<use xlink:href="#glyph-2-0" x="15.566406" y="230.898438"/>
<use xlink:href="#glyph-2-1" x="15.566406" y="222.894531"/>
<use xlink:href="#glyph-2-2" x="15.566406" y="218.898438"/>
<use xlink:href="#glyph-2-3" x="15.566406" y="212.224609"/>
<use xlink:href="#glyph-2-2" x="15.566406" y="205.550781"/>
<use xlink:href="#glyph-2-1" x="15.566406" y="198.876953"/>
<use xlink:href="#glyph-2-4" x="15.566406" y="194.880859"/>
<use xlink:href="#glyph-2-5" x="15.566406" y="191.546875"/>
<use xlink:href="#glyph-2-2" x="15.566406" y="188.880859"/>
<use xlink:href="#glyph-2-6" x="15.566406" y="182.207031"/>
<use xlink:href="#glyph-2-7" x="15.566406" y="175.533203"/>
<use xlink:href="#glyph-2-8" x="15.566406" y="172.199219"/>
<use xlink:href="#glyph-2-9" x="15.566406" y="164.195312"/>
<use xlink:href="#glyph-2-10" x="15.566406" y="157.521484"/>
<use xlink:href="#glyph-2-10" x="15.566406" y="151.521484"/>
<use xlink:href="#glyph-2-5" x="15.566406" y="145.521484"/>
<use xlink:href="#glyph-2-6" x="15.566406" y="142.855469"/>
<use xlink:href="#glyph-2-9" x="15.566406" y="136.181641"/>
<use xlink:href="#glyph-2-4" x="15.566406" y="129.507812"/>
<use xlink:href="#glyph-2-11" x="15.566406" y="126.173828"/>
<use xlink:href="#glyph-2-12" x="15.566406" y="119.5"/>
</g>
</svg>
